<?xml version="1.0" encoding="utf-8"?>
<!-- Generator: Adobe Illustrator 26.1.0, SVG Export Plug-In . SVG Version: 6.00 Build 0)  -->
<svg version="1.1" id="Capa_1" xmlns="http://www.w3.org/2000/svg" xmlns:xlink="http://www.w3.org/1999/xlink" x="0px" y="0px"
	 viewBox="0 0 148 25" style="enable-background:new 0 0 148 25;" xml:space="preserve">
<style type="text/css">
	.st0{fill:#FFFFFF;}
	.st1{fill-rule:evenodd;clip-rule:evenodd;fill:#FFFFFF;}
</style>
<g>
	<path class="st0" d="M37.2,6.3h5.2c0.7,0,1.4,0.2,2.1,0.5c0.6,0.3,1.1,0.7,1.5,1.3s0.5,1.1,0.5,1.8s-0.2,1.3-0.5,1.7
		c-0.3,0.5-0.8,0.9-1.3,1.1v0.1c0.7,0.2,1.2,0.6,1.7,1.2c0.4,0.5,0.6,1.2,0.6,1.9s-0.2,1.4-0.6,2c-0.4,0.6-0.9,1-1.6,1.3
		c-0.7,0.3-1.4,0.5-2.2,0.5h-5.4V6.3z M42.2,11.7c0.5,0,1-0.2,1.3-0.5s0.5-0.7,0.5-1.1c0-0.4-0.2-0.8-0.5-1.1s-0.7-0.5-1.3-0.5h-2.6
		v3.2C39.7,11.7,42.2,11.7,42.2,11.7z M42.5,17.4c0.6,0,1.1-0.2,1.4-0.5c0.3-0.3,0.5-0.7,0.5-1.2c0-0.5-0.2-0.9-0.5-1.3
		c-0.3-0.3-0.8-0.5-1.5-0.5h-2.7v3.5H42.5z M55.4,20c-1.3,0-2.5-0.3-3.6-0.9c-1-0.6-1.9-1.5-2.5-2.5c-0.6-1.1-0.9-2.2-0.9-3.5
		s0.3-2.5,0.9-3.5c0.6-1.1,1.5-1.9,2.5-2.5C53,6.3,54.1,6,55.4,6s2.5,0.3,3.6,0.9c1,0.6,1.9,1.5,2.5,2.5c0.6,1.1,0.9,2.2,0.9,3.5
		s-0.3,2.5-0.9,3.5c-0.6,1.1-1.5,1.9-2.5,2.5C57.9,19.7,56.8,20,55.4,20L55.4,20z M55.4,17.6c0.8,0,1.6-0.2,2.3-0.6s1.2-0.9,1.6-1.6
		c0.4-0.7,0.6-1.5,0.6-2.4s-0.2-1.7-0.6-2.4c-0.4-0.7-0.9-1.2-1.6-1.6c-0.7-0.4-1.5-0.6-2.3-0.6S53.8,8.6,53.2,9
		c-0.7,0.4-1.2,0.9-1.6,1.6C51.2,11.3,51,12.1,51,13s0.2,1.7,0.6,2.4c0.4,0.7,0.9,1.2,1.6,1.6C53.9,17.4,54.7,17.6,55.4,17.6z
		 M70.8,20c-1.3,0-2.5-0.3-3.6-0.9c-1-0.6-1.9-1.5-2.5-2.5c-0.6-1.1-0.9-2.2-0.9-3.5s0.3-2.5,0.9-3.5c0.6-1.2,1.5-2.1,2.5-2.7
		C68.3,6.3,69.5,6,70.8,6c1.3,0,2.5,0.3,3.6,0.9c1,0.6,1.9,1.5,2.5,2.5c0.6,1.1,0.9,2.2,0.9,3.5s-0.3,2.5-0.9,3.5
		c-0.6,1.1-1.5,1.9-2.5,2.5C73.3,19.7,72.1,20,70.8,20z M70.8,17.6c0.8,0,1.6-0.2,2.3-0.6c0.7-0.4,1.2-0.9,1.6-1.6
		c0.4-0.7,0.6-1.5,0.6-2.4s-0.2-1.7-0.6-2.4S73.8,9.4,73.1,9c-0.7-0.4-1.5-0.6-2.3-0.6S69.2,8.6,68.6,9c-0.7,0.4-1.2,0.9-1.6,1.6
		c-0.4,0.7-0.6,1.5-0.6,2.4s0.2,1.7,0.6,2.4c0.4,0.7,0.9,1.2,1.6,1.6C69.2,17.4,70,17.6,70.8,17.6z M80,6.3h2.5V12h0.2l4.9-5.7h3
		v0.1L85.8,12l5.3,7.5v0.1H88l-4-5.7l-1.5,1.8v3.9H80V6.3L80,6.3z M94,6h3.2l3.5,9.4h0.2l3.5-9.4h3.3v13.4h-2.5v-6.6l0.2-2.2h-0.2
		l-3.4,8.8h-2l-3.4-8.8h-0.1l0.2,2.2v6.6H94L94,6L94,6z M114.8,6h2.9l5,13.4h-2.8l-1.1-3.2h-5.1l-1.1,3.2h-2.8L114.8,6z M118,13.9
		l-1.2-3.4l-0.5-1.6h-0.1l-0.5,1.6l-1.2,3.4H118L118,13.9z M124.8,6h4.9c0.9,0,1.6,0.2,2.3,0.5c0.7,0.4,1.2,0.9,1.6,1.5
		c0.4,0.6,0.6,1.4,0.6,2.2c0,0.9-0.3,1.6-0.8,2.3s-1.2,1.2-2,1.4V14l3.6,5.1v0.1h-2.9l-3.5-5h-1.2v5h-2.5
		C124.8,19.4,124.8,6,124.8,6z M129.6,12c0.6,0,1-0.2,1.4-0.5s0.5-0.8,0.5-1.3s-0.2-0.9-0.5-1.3c-0.3-0.4-0.8-0.5-1.4-0.5h-2.4V12
		H129.6L129.6,12z M136.8,6h2.5v5.7h0.1l4.9-5.7h3v0.2l-4.8,5.5l5.3,7.5v0.1h-3.1l-4-5.7l-1.5,1.8v3.9h-2.5L136.8,6L136.8,6z"/>
	<path class="st1" d="M12.7,0c6.9,0,12.5,5.6,12.5,12.5S19.6,25,12.7,25S0.2,19.4,0.2,12.5S5.8,0,12.7,0z M9.2,9v10l3.5-3.4l3.5,3.4
		V9c0-1.1-0.9-2-2-2h-3C10.1,7,9.2,7.9,9.2,9z"/>
</g>
</svg>
